<?xml version="1.0" encoding="utf-8"?>
<!-- Generator: Adobe Illustrator 24.2.3, SVG Export Plug-In . SVG Version: 6.00 Build 0)  -->
<svg version="1.1" id="Layer_1" xmlns="http://www.w3.org/2000/svg" xmlns:xlink="http://www.w3.org/1999/xlink" x="0px" y="0px"
	 viewBox="0 0 113.2 113.5" style="enable-background:new 0 0 113.2 113.5;" xml:space="preserve">
<style type="text/css">
	.st0{fill:#B2B2B2;}
	.st1{fill:#9A9A9A;}
	.st2{fill:#C3C3C3;}
	.st3{fill:#3A3A3A;}
	.st4{fill:#5F5F5F;}
	.st5{fill:#636363;}
	.st6{fill:#D9D9D9;}
	.st7{fill:#F5F5F5;}
	.st8{fill:#E2E2E2;}
	.st9{fill:#EDEDED;}
	.st10{fill:#E0E0E0;}
	.st11{fill:#A3A3A3;}
	.st12{fill:#FFFFFF;}
	.st13{fill:#E5E5E5;}
</style>
<g id="Layer_2_1_">
	<g id="Object">
		<path class="st0" d="M30.7,70.7c-0.6,1.3,16.1,28,22.9,42.8h5.2C65.8,98.3,83,70,82.3,68.7c-0.7-1.6,2.3-0.1-6.7-5
			s-7.8-13.6-7.8-16.1H44.8c-0.1,2.5,1.1,11.2-7.8,16.1S31.5,69.1,30.7,70.7z"/>
		<path class="st1" d="M40.8,61.7c-2.6,1.2-19.7,5.3-11,18.7s25.4,32.3,42.8,12c22.1-25.9,5.8-26,0.8-30.4s-17,14.1-17,14.1
			L40.8,61.7z"/>
		<path class="st2" d="M68.2,53.6c-0.3,0.3-0.6,0.6-1,0.9c-1,0.9-2,1.7-3.2,2.4c-1,0.6-2,1.1-3.1,1.4c-1,0.3-2,0.5-3,0.6
			c-1.3,0.1-2.6,0.1-3.9-0.1c-1.1-0.2-2.1-0.4-3.2-0.8c-1.1-0.4-2.2-1-3.2-1.7c-1.2-0.8-2.3-1.7-3.3-2.7c-4.3-4.2-4.3-14.8-5.3-14
			c-2.4,1.6-3.9-3.2-4.2-6s1-4,2.2-2.8s1.2-0.1,1.5-1.7c0.1-0.5,0.2-1,0.4-1.5c0.2-0.8,0.5-1.5,0.8-2.2c0.4-0.9,0.8-1.8,1.2-2.7
			c0.5-1,1.1-1.9,1.7-2.9c0.7-1,1.5-1.9,2.4-2.8c0.9-0.9,1.9-1.7,3-2.3c1.2-0.7,2.4-1.2,3.7-1.6c1.5-0.4,3.1-0.6,4.7-0.6
			c2.9,0,5.8,0.8,8.2,2.3c1.1,0.7,2.1,1.4,3,2.3c0.8,0.8,1.6,1.7,2.3,2.7c0.6,0.9,1.2,1.8,1.7,2.8c0.4,0.9,0.9,1.8,1.2,2.7
			c0.3,0.7,0.5,1.5,0.8,2.2c0.1,0.5,0.3,1,0.4,1.5c0.3,1.6,0.3,2.9,1.6,1.7s2.5,0,2.2,2.8s-1.8,7.6-4.2,6
			C72.4,38.9,72.5,49.5,68.2,53.6z"/>
		<path class="st3" d="M45.1,19.8c-2.9-1.6-3.4,3.8-5,6.2s-0.5,6.8-1.4,5.9s-2-1-2.3-1.6c-0.2-0.4-3.6-13.5,0.6-20.5
			c1.3-1.9,3.2-2.4,3.6-2.9s1.4-4.3,9.9-6.4c6.6-1.5,18.2-0.7,24.3,9s1.6,19.7,1.4,20.8S74.4,31,73.7,32s-0.4-3.6-1.3-5
			s-1.4-3.6-3.3-4S53.5,24.2,45.1,19.8z"/>
		<path class="st4" d="M63.5,113.5c-1.8-13.2-4.9-32.9-5.2-34.1h-4.2c-0.3,1.2-3.4,20.9-5.2,34.1L63.5,113.5z"/>
		<path class="st5" d="M61.3,72.8c0-0.6-1.2-1.5-1.6-1.9c-0.9-1-1.9-1.8-3-2.5h-0.8c-1.1,0.7-2.1,1.5-3,2.5
			c-0.5,0.4-1.6,1.3-1.6,1.9c-0.2,2.5,1.2,3.9,2.4,6.7c0.1,0.2,0.3,0.4,0.5,0.5c0.2,0.1,0.5,0.1,0.7,0.1l1.2,0.1l0,0h0.5l0,0
			l1.1-0.1c0.2,0,0.5-0.1,0.7-0.1c0.2-0.1,0.4-0.3,0.5-0.5C60.1,76.7,61.5,75.3,61.3,72.8z"/>
		<path class="st6" d="M42.5,56.7c0.8-1.3,2.8,3.2,13.5,11.4c1.4,1-7.1,5.6-6.7,9.3S37.6,67,38.2,62C38.3,61.2,40.5,60.1,42.5,56.7z
			"/>
		<path class="st6" d="M69.7,56.7c-0.8-1.3-2.8,3.2-13.5,11.4c-1.4,1,7.1,5.6,6.7,9.3S74.6,67,74,62C73.9,61.2,71.7,60.1,69.7,56.7z
			"/>
		<path class="st7" d="M20.7,113.5h36.2c-0.1-5.8-0.2-9.5-0.3-9.9c-0.2-1.8-0.8-3.5-1.7-5.1c-0.8-1.5-4.2-7.3-5.2-8.7
			c-2.9-4-9.7-14.7-11.9-19.2c-1.6-3.3-1.8-6.3-4.4-5.3s-14.8,4.6-18.1,6.8c-0.1,0.1,2.9,7.2,3.5,11C19.6,88.6,22,105.7,20.7,113.5z
			"/>
		<path class="st8" d="M21.6,113.5c0.4-2.6-0.1-17.3-0.6-22.2c-0.9-8.3-1.8-16-4.4-19.3c-0.7-1-4.9,2.9-5.4,3.4
			c-4.1,4-5.6,11.7-9.4,26.1c-1.1,3.9-1.7,7.9-1.9,12L21.6,113.5z"/>
		<path class="st9" d="M92.6,113.5c-1.3-7.8,1-24.9,1.8-30.5c0.6-3.7,3.6-10.9,3.5-11c-3.3-2.2-15.5-5.8-18.1-6.8s-4.2,1.5-5.8,4.9
			c-2.2,4.6-7.5,15.7-10.4,19.7c-1,1.4-4.3,7.2-5.2,8.7c-0.9,1.6-1.5,3.3-1.7,5.1c-0.1,0.4-0.2,4-0.3,9.9L92.6,113.5z"/>
		<path class="st10" d="M83.1,72.8c-1.4-1-1.5-3.2-3.5-6.8c-1.3-2.4-3.7-3.8-4.5-4.5c-1.7-1.5-2.6-1.2-2.6-1.2
			c0.9,0.5,1.4,1.5,1.2,2.5c0,0.6,1,2.8-2.9,8.5c-3.3,4.9-13.7,22.1-14.6,29.2C55.4,93.4,44.5,76.2,41,71.3c-4-5.6-3-7.8-2.9-8.5
			c0.2-0.9,0.7-1.7,1.4-2.4c0,0-1-0.4-2.7,1.1c-0.9,0.7-3.2,2.1-4.5,4.5c-2,3.6-2.1,5.8-3.5,6.8s11,1.9,11,1.9l-7.8,5.9
			c0,0,8.8,10,14.7,14.4c1.8,1.3,3.6,3.8,5.2,5.5c1.5,1.9,3.1,3.7,4.9,5.4c1.4-2.3,1.6-3.4,3.4-5.4c1.5-1.7,3.3-4.2,5.2-5.5
			c5.9-4.3,14.7-14.3,14.7-14.3l-7.8-5.9C72.1,74.7,84.5,73.9,83.1,72.8z"/>
		<path d="M71.7,58.2c-0.3-0.1-0.7-0.1-0.9,0.1l0.1,0.1c0.5,0.6,1,1.3,1.6,1.8c0.4,0.3,0.7,0.7,1,1.1c8.8,5.8,7.2,19.4,6.2,27.1
			c-0.2,1.4-0.3,2.8-0.4,4.2c-0.1,0.5,0.2,1.1,0.7,1.2c0.5,0.1,1.1-0.2,1.2-0.7c0-0.2,0-0.4,0-0.5c0-0.9,0.2-2.3,0.4-4
			C82.7,79.8,84.8,63.4,71.7,58.2z"/>
		<circle class="st11" cx="79.7" cy="95.8" r="3.3"/>
		<path class="st12" d="M82,95.8c0,1.3-1,2.3-2.3,2.3s-2.3-1-2.3-2.3s1-2.3,2.3-2.3c0,0,0,0,0,0C81,93.5,82,94.5,82,95.8z"/>
		<path d="M41.3,58.4c0,0,0.2-0.2,0.2-0.2c-0.2-0.1-0.7,0-0.9,0.1c-1.8,0.7-11,5.2-10.5,26.7c0,0.6,0.4,1,1,1h0.1
			c0.5-0.1,0.9-0.5,0.9-1c-0.3-14.9,4.3-21.8,7.2-24.2C39.9,60,40.7,59.3,41.3,58.4z"/>
		<path class="st13" d="M25,111.9c0,0.5,0.1,1,0.1,1.6h0.7c-0.1-0.6-0.1-1.1-0.1-1.7v-0.4c-0.4-7-0.6-11-0.6-11.8
			c0-0.2-0.2-0.3-0.3-0.3c0,0,0,0,0,0c-0.2,0-0.3,0.2-0.3,0.3c0,0,0,0,0,0c0.1,0.8,0.3,4.7,0.6,11.8L25,111.9z"/>
		<path class="st13" d="M41.8,110.5c0.1,1,0.1,2,0,3h0.7c0.1-1,0.1-2,0-3v-0.4c-0.8-7-1.2-10.9-1.3-11.7c0-0.2-0.2-0.3-0.3-0.3
			c0,0,0,0,0,0c-0.2,0-0.3,0.2-0.3,0.3c0,0,0,0,0,0c0.1,0.8,0.5,4.8,1.3,11.8L41.8,110.5z"/>
		<path d="M41.2,98.3l-0.9,0.1c-0.3,0-0.5-0.2-0.5-0.5c-0.5-4.5-2.8-11.4-8.5-11s-5.6,9.8-5.5,12.1c0,0.3-0.2,0.5-0.5,0.6l-0.9,0.1
			c-0.3,0-0.6-0.2-0.6-0.5c0,0,0,0,0,0c-0.1-2.5,0.1-4.9,0.6-7.3c1.3-5.3,4.4-6.6,6.6-6.9c6.5-0.5,10,6,10.7,12.8
			C41.7,98,41.5,98.3,41.2,98.3z"/>
		<path class="st8" d="M91.6,113.5c-0.4-2.6,0.1-17.3,0.6-22.2c0.9-8.3,1.8-16,4.4-19.3c0.7-1,4.9,2.9,5.3,3.4
			c4.1,4,5.6,11.7,9.4,26.1c1.1,3.9,1.7,7.9,1.9,12L91.6,113.5z"/>
	</g>
</g>
</svg>
