<?xml version="1.0" encoding="utf-8"?>
<!-- Generator: Adobe Illustrator 24.2.3, SVG Export Plug-In . SVG Version: 6.00 Build 0)  -->
<svg version="1.1" id="Layer_1" xmlns="http://www.w3.org/2000/svg" xmlns:xlink="http://www.w3.org/1999/xlink" x="0px" y="0px"
	 viewBox="0 0 102.7 107.7" style="enable-background:new 0 0 102.7 107.7;" xml:space="preserve">
<style type="text/css">
	.st0{fill:#E2E2E2;}
	.st1{fill:#B2B2B2;}
	.st2{fill:#C3C3C3;}
	.st3{fill:#EDEDED;}
	.st4{fill:#F5F5F5;}
	.st5{fill:#797979;}
	.st6{fill:#4E4E4E;}
	.st7{fill:#E0E0E0;}
	.st8{fill:#8D8D8D;}
	.st9{fill:#E5E5E5;}
	.st10{fill:#A3A3A3;}
	.st11{fill:#FFFFFF;}
</style>
<g id="Layer_2_1_">
	<g id="Object">
		<path class="st0" d="M24,80.9c-2.7-4.7-3.5-14.5-7.5-13.4c-2.9,0.8-6.6,9-9,18.1c-1.9,7.2-7,19.8-7.5,22.1h23.1
			C24.6,99.1,25.9,84.2,24,80.9z"/>
		<path class="st0" d="M102.7,107.7c-0.5-2.3-5.6-14.9-7.5-22.1c-2.4-9.2-6.1-17.3-9-18.1c-4-1-4.8,8.8-7.5,13.4
			c-1.9,3.3-0.7,18.2,0.9,26.8L102.7,107.7z"/>
		<path class="st1" d="M30.4,67.2C29.9,68.4,45,94.9,50,107.7h2.7c5-13.1,20.5-41.1,20-42.3c-0.6-1.4,1.8-0.1-5.5-4.5
			s-6.3-12.3-6.4-14.5H41.9c-0.1,2.2,0.9,10.1-6.4,14.5S31,65.7,30.4,67.2z"/>
		<path class="st2" d="M62.4,46.9c-0.3,0.3-0.6,0.6-0.9,0.8c-0.9,0.8-1.9,1.6-3,2.2c-0.9,0.5-1.9,1-2.9,1.3
			c-0.9,0.3-1.9,0.5-2.8,0.6c-1.2,0.1-2.4,0.1-3.6-0.1c-1-0.2-1.9-0.4-2.9-0.8c-1-0.4-2-0.9-2.9-1.5c-1.1-0.7-2.1-1.6-3.1-2.5
			c-4-3.9-4-13.8-5-13.1c-2.2,1.5-3.7-3-3.9-5.6s0.9-3.8,2-2.6s1.1-0.1,1.4-1.6c0.1-0.5,0.2-0.9,0.4-1.4c0.2-0.7,0.5-1.4,0.7-2.1
			c0.3-0.9,0.7-1.7,1.2-2.5c0.5-0.9,1-1.8,1.6-2.6c0.6-0.9,1.4-1.8,2.2-2.5c0.8-0.8,1.8-1.5,2.8-2.2c1.1-0.7,2.3-1.2,3.5-1.5
			c1.4-0.4,2.9-0.6,4.4-0.6c1.4,0,2.9,0.2,4.2,0.6c1.2,0.4,2.4,0.9,3.5,1.5c1,0.6,1.9,1.3,2.8,2.2c0.8,0.8,1.5,1.6,2.2,2.5
			c0.6,0.8,1.1,1.7,1.6,2.6c0.4,0.8,0.8,1.6,1.1,2.5c0.3,0.7,0.5,1.4,0.7,2.1c0.1,0.5,0.3,0.9,0.4,1.4c0.3,1.5,0.3,2.7,1.4,1.6
			s2.3,0,2,2.6s-1.7,7.1-3.9,5.6C66.4,33.1,66.5,43,62.4,46.9z"/>
		<path class="st3" d="M80.8,90c0,6.4,0.2,12.1-1.2,17.7H52.2l-0.1-1.9c1.4-2.3,1.6-3.4,3.4-5.4c1.5-1.7,3.3-4.2,5.2-5.5
			c5.9-4.3,14.7-14.3,14.7-14.3l-7.8-5.9c0,0,12.4-0.8,11-1.9S77,69.6,75,66c-0.9-1.4-2-2.7-3.4-3.7c5.3,1.8,15,4.8,15.5,5.5
			c0.2,0.3,0.8,0.6,1,1C83,70.7,81.5,82.6,80.8,90z"/>
		<path class="st4" d="M67.5,74.7l7.8,5.9c0,0-8.8,10-14.7,14.3c-1.8,1.3-3.7,3.8-5.2,5.5c-1.8,1.9-2,3-3.4,5.4l0.1,1.9H23.4
			c-1-3.6-0.8-7.7-1.1-17.2c-0.8-7.4-2.4-20.2-7.5-22c0.1-0.4,0.4-0.5,0.9-0.9c0.7-0.6,10.1-3.6,15.4-5.3c1.5-0.5,2.6-0.9,3.2-1.1
			h0.1c0,0,2.3,4.3,8.6,11.5c2.5,2.9,7.8,7.2,8.6,7.2s6.1-4.5,8.4-7.2c3.2-3.6,6-7.5,8.6-11.5l0.5,0.2c0.6,0.2,1.5,0.5,2.6,0.9
			c1.4,1,2.6,2.2,3.4,3.7c2,3.6,2.1,5.8,3.5,6.8S67.5,74.7,67.5,74.7z"/>
		<path class="st5" d="M68.5,61.3c-2.2,3.4-4.6,6.7-7.2,9.9c-2.8,3.4-6.1,6.3-9.8,8.8c-3.7-2.4-7-5.3-9.8-8.7
			c-2.6-3.2-5-6.5-7.2-9.9l-4,1.3c0,0,4.6,7.2,8.4,11.8c4.4,5.4,11.9,9.9,12.7,10.1l0,0l0,0l0,0c0.7-0.1,8.2-4.6,12.6-10.1
			c3.7-4.6,8.3-11.8,8.3-11.8L68.5,61.3z"/>
		<path class="st6" d="M43.2,12c3.8,0.4,7.5,1.8,13.7,6.7c4.9,3.9,9.3,7.8,11.3,8.4c0.6,0.1,0.6-2,2.4-1.6c0.5,0.1,1.2-9.7-2.7-16.2
			C63.6,1.9,54.8-1.6,46.6,0.7c-4.9,1.5-5.2,3.6-7.5,4.2c-4.6,1.2-7.5,8.5-7.5,15.5s1.5,5.4,2.2,5.9s1.4-6,5.2-9.2S43.2,12,43.2,12z
			"/>
		<path class="st7" d="M67.5,74.7l7.8,5.9c0,0-8.8,10-14.7,14.3c-1.8,1.3-3.7,3.8-5.2,5.5c-1.8,1.9-2,3-3.4,5.4
			c-1.7-1.7-3.4-3.5-4.9-5.4c-1.5-1.7-3.3-4.2-5.2-5.5c-5.9-4.3-14.7-14.3-14.7-14.3l7.8-5.9c0,0-12.4-0.8-11-1.9s1.5-3.2,3.5-6.8
			c0.9-1.4,2-2.7,3.4-3.6c0.5-0.4,0.9-0.7,1.1-0.9c1.7-1.5,2.7-1.1,2.7-1.1c-0.3,0.3-0.5,0.6-0.7,0.9c-0.3,0.5-0.5,1-0.7,1.5
			c-0.2,0.7-1.1,2.9,2.9,8.5c3.4,4.9,14.4,22.1,15.2,29.2c0.8-7.1,11.2-24.2,14.6-29.2c3.9-5.7,2.8-7.9,2.9-8.5c0-0.4,0-0.9-0.2-1.3
			c-0.2-0.5-0.6-1-1.1-1.2c0,0,0.9-0.2,2.6,1.2c0.3,0.2,0.7,0.5,1.1,0.9c1.4,1,2.6,2.2,3.5,3.6c2,3.6,2.1,5.8,3.5,6.8
			S67.5,74.7,67.5,74.7z"/>
		<path class="st8" d="M64.7,73.7c-4.2,6.7-12.3,20.6-13,26.8C50.9,94,41.7,79,37.5,72.8c0.4,0.6,0.9,1.1,1.3,1.6
			c4.4,5.4,11.9,9.9,12.7,10.1l0,0c0.7-0.2,8.2-4.6,12.6-10.1C64.3,74.2,64.5,74,64.7,73.7z"/>
		<path class="st5" d="M66.3,71.3c-0.4,0.6-1,1.4-1.6,2.4l0,0c-0.2,0.3-0.4,0.5-0.6,0.7c-4.4,5.4-11.9,9.9-12.6,10.1l0,0
			c-0.7-0.2-8.2-4.6-12.7-10.1c-0.4-0.5-0.8-1-1.3-1.6s-0.7-1.1-1-1.5c-4-5.6-3-7.8-2.9-8.5c0.1-0.5,0.3-1,0.6-1.5h0.1
			c0.2,0.3,2.5,4.6,8.6,11.5c2.5,2.9,7.8,7.2,8.6,7.2c0.5,0,3.4-2.3,5.9-4.6l0.6-0.6c0.5-0.5,1-1,1.5-1.5l0,0
			c0.6-0.7,1.2-1.3,1.8-2.1c1.2-1.4,2.2-2.8,3.2-4.1c0.4-0.5,0.8-1,1.1-1.5c0.6-0.8,1.1-1.6,1.6-2.2c0.8-1.1,1.3-1.9,1.3-2l0.4,0.2
			c0.2,0.4,0.2,0.9,0.2,1.3C69.1,63.4,70.1,65.6,66.3,71.3z"/>
		<path d="M39.5,57.5c0,0,0.2-0.2,0.2-0.2c-0.2-0.1-0.7,0-0.9,0.1c-1.8,0.7-11,5.2-10.5,26.7c0,0.6,0.4,1,1,1h0
			c0.5-0.1,0.9-0.5,0.9-1c-0.3-14.9,4.3-21.8,7.2-24.2C38.1,59.2,38.8,58.4,39.5,57.5z"/>
		<path class="st9" d="M23.6,107.7c-0.3-5.3-0.5-8.3-0.5-9c0-0.2-0.2-0.3-0.3-0.3c0,0,0,0,0,0c-0.2,0-0.3,0.2-0.3,0.3c0,0,0,0,0,0
			c0,0.7,0.2,3.7,0.5,9L23.6,107.7z"/>
		<path class="st9" d="M40.3,107.7c-0.7-6.1-1-9.6-1.1-10.3c0-0.2-0.2-0.3-0.3-0.3c0,0,0,0,0,0c-0.2,0-0.3,0.2-0.3,0.3c0,0,0,0,0,0
			c0.1,0.7,0.4,4.2,1.1,10.3L40.3,107.7z"/>
		<path d="M39.3,97.4l-0.9,0.1c-0.3,0-0.5-0.2-0.5-0.5c-0.5-4.5-2.8-11.4-8.5-11s-5.6,9.8-5.5,12.1c0,0.3-0.2,0.5-0.5,0.6l-0.9,0.1
			c-0.3,0-0.6-0.2-0.6-0.5c0,0,0,0,0,0c-0.1-2.4,0.1-4.9,0.6-7.2c1.3-5.3,4.3-6.7,6.6-6.8c6.4-0.5,9.9,5.9,10.6,12.7
			C39.8,97.2,39.6,97.4,39.3,97.4z"/>
		<path d="M64.2,57.3c-0.3-0.1-0.7-0.1-0.9,0.1l0.1,0.1c0.5,0.7,1,1.3,1.6,1.8c0.4,0.3,0.7,0.7,1,1.1c8.8,5.8,7.2,19.4,6.2,27.1
			c-0.2,1.4-0.3,2.8-0.4,4.2c-0.1,0.5,0.2,1.1,0.7,1.2c0.5,0.1,1.1-0.2,1.2-0.7c0-0.2,0-0.4,0-0.5c0-0.9,0.2-2.3,0.4-4
			C75.2,78.9,77.3,62.5,64.2,57.3z"/>
		<circle class="st10" cx="72.2" cy="94.9" r="3.3"/>
		<path class="st11" d="M74.4,94.9c0,1.3-1,2.3-2.3,2.3s-2.3-1-2.3-2.3s1-2.3,2.3-2.3c0,0,0,0,0,0C73.4,92.6,74.4,93.6,74.4,94.9z"
			/>
	</g>
</g>
</svg>
