<?xml version="1.0" encoding="utf-8"?>
<!-- Generator: Adobe Illustrator 24.2.3, SVG Export Plug-In . SVG Version: 6.00 Build 0)  -->
<svg version="1.1" id="Layer_1" xmlns="http://www.w3.org/2000/svg" xmlns:xlink="http://www.w3.org/1999/xlink" x="0px" y="0px"
	 viewBox="0 0 30 21.2" style="enable-background:new 0 0 30 21.2;" xml:space="preserve">
<style type="text/css">
	.st0{fill:#909090;}
</style>
<path class="st0" d="M26,3.6H4c-0.6,0-1,0.4-1,1v12c0,0.6,0.4,1,1,1h22c0.6,0,1-0.4,1-1v-12C27,4,26.6,3.6,26,3.6z M5.5,12.6
	c-0.2,0-0.4,0-0.5,0.1V8.5c0.1,0.1,0.3,0.1,0.5,0.1C6.9,8.6,8,7.5,8,6.1c0-0.2,0-0.4-0.1-0.5H22c0,0.1,0,0.3,0,0.5
	c0,1.4,1.1,2.5,2.5,2.5c0.2,0,0.4,0,0.5-0.1v4.1c-0.1,0-0.3-0.1-0.5-0.1c-1.4,0-2.5,1.1-2.5,2.5c0,0.2,0,0.4,0.1,0.5H7.9
	C8,15.5,8,15.3,8,15.1C8,13.7,6.9,12.6,5.5,12.6z M12,10.6c0-1.7,1.3-3,3-3s3,1.3,3,3s-1.3,3-3,3S12,12.3,12,10.6z"/>
</svg>
