<svg xmlns="http://www.w3.org/2000/svg" viewBox="0 0 307.89 112.9"><defs><style>.cls-1{fill:#fff;}</style></defs><g id="Layer_2" data-name="Layer 2"><g id="Layer_1-2" data-name="Layer 1"><path class="cls-1" d="M306,17.92a4.73,4.73,0,0,0-3.43-1.42,25.66,25.66,0,0,0-9.82,1.93A25.09,25.09,0,0,0,284.43,24a25.31,25.31,0,0,0-7.51,18.08V66a4.84,4.84,0,0,0,1.39,3.45,4.75,4.75,0,0,0,6.91,0,4.82,4.82,0,0,0,1.4-3.45V42a14.83,14.83,0,0,1,1.26-6.12,16.52,16.52,0,0,1,3.46-5A15.68,15.68,0,0,1,302.6,26.2,4.85,4.85,0,0,0,306,17.92Z"/><path class="cls-1" d="M255.14,17.82a4.85,4.85,0,0,0-8.28,3.44V66a4.85,4.85,0,1,0,9.69,0V21.26A4.77,4.77,0,0,0,255.14,17.82Z"/><circle class="cls-1" cx="251.71" cy="8.04" r="4.85"/><rect class="cls-1" x="23.41" y="31.52" width="17.31" height="38.28" rx="5.16" transform="translate(45.21 -7.83) rotate(45)"/><rect class="cls-1" x="9.08" y="17.63" width="17.31" height="38.28" rx="4.63" transform="translate(31.19 -1.77) rotate(45)"/><path class="cls-1" d="M188.64,0a4.28,4.28,0,0,1,4.3,4.3V20.58a21.31,21.31,0,0,1,27.83,2.08,20.68,20.68,0,0,1,6.29,15.17V66.68a4.35,4.35,0,0,1-4.3,4.3h-.1a4.19,4.19,0,0,1-3.07-1.27,4,4,0,0,1-1.27-3V37.83a12.69,12.69,0,1,0-25.38,0V66.68a4,4,0,0,1-1.28,3,4.13,4.13,0,0,1-3,1.27h-.14a4.13,4.13,0,0,1-3-1.27,4,4,0,0,1-1.28-3V4.3A4.28,4.28,0,0,1,188.5,0Z"/><path class="cls-1" d="M114.76,71a4.87,4.87,0,0,1-4.87-4.87V44c0-.27,0-.55,0-.83a17.36,17.36,0,0,0-1.43-6.23,18.31,18.31,0,0,0-9.54-9.61,17.77,17.77,0,0,0-14.06,0,18.38,18.38,0,0,0-9.55,9.61A17.5,17.5,0,0,0,73.86,44a17.12,17.12,0,0,0,1.44,7,18.6,18.6,0,0,0,3.85,5.71,18.16,18.16,0,0,0,2,1.78,18.85,18.85,0,0,0,3.64,2.12,18.2,18.2,0,0,0,7,1.45h14.86l0,.44a9.29,9.29,0,0,1-9.24,8.26H91.87A32.72,32.72,0,0,1,82,69.51a23.17,23.17,0,0,1-9.76-5.92,28.11,28.11,0,0,1-6-8.83A27,27,0,0,1,64.11,44a27.42,27.42,0,0,1,2.18-10.85A27.78,27.78,0,0,1,81,18.28a27.63,27.63,0,0,1,21.56,0,29.39,29.39,0,0,1,8.86,6A27.69,27.69,0,0,1,119.63,44V66.11A4.88,4.88,0,0,1,114.76,71Z"/><text/><path class="cls-1" d="M247.56,88.39A1.5,1.5,0,0,1,248.71,90v.09a1.65,1.65,0,0,1-2.14,1.56A6.51,6.51,0,0,0,240,102.4a6.25,6.25,0,0,0,4.61,1.91,6.6,6.6,0,0,0,2-.3,1.58,1.58,0,0,1,1.47.23,1.56,1.56,0,0,1,.67,1.33,1.51,1.51,0,0,1-1.15,1.57,9.9,9.9,0,0,1-3,.45,9.46,9.46,0,0,1-7-2.88,8.86,8.86,0,0,1-2.88-6.6,10.49,10.49,0,0,1,2.88-7.31,9.46,9.46,0,0,1,7-2.88A9.61,9.61,0,0,1,247.56,88.39Z"/><path class="cls-1" d="M307.89,97.91a1.62,1.62,0,0,1-.47,1.17,1.59,1.59,0,0,1-1.17.48H291.73a6.17,6.17,0,0,0,3.63,4.37,6.3,6.3,0,0,0,4,.44,6.37,6.37,0,0,0,3.41-1.89,1.66,1.66,0,1,1,2.41,2.27,9.47,9.47,0,0,1-5.17,2.85,9.64,9.64,0,0,1-6-.68A9.83,9.83,0,0,1,302.12,89a9.61,9.61,0,0,1,4.23,3.67A9.72,9.72,0,0,1,307.89,97.91Zm-7.16-5.85a6.21,6.21,0,0,0-5-.16,6.3,6.3,0,0,0-3.63,3.42,6.9,6.9,0,0,0-.33.9H304.3A6.18,6.18,0,0,0,300.73,92.06Z"/><path class="cls-1" d="M277.62,107.74a1.6,1.6,0,0,1-1.18-.51,1.65,1.65,0,0,1-.48-1.18V97.34a9,9,0,0,1,2.7-6.5,9,9,0,0,1,3-2,9.25,9.25,0,0,1,3.53-.69,1.63,1.63,0,0,1,1.18.48,1.66,1.66,0,0,1-1.18,2.83A5.85,5.85,0,0,0,281,93.17,6,6,0,0,0,279.75,95a5.56,5.56,0,0,0-.47,2.27v8.75a1.65,1.65,0,0,1-.48,1.18A1.62,1.62,0,0,1,277.62,107.74Z"/><path class="cls-1" d="M269.58,107.59a1.75,1.75,0,0,1-1.75-1.75v-8c0-.1,0-.2,0-.3a6.22,6.22,0,0,0-.51-2.24,6.7,6.7,0,0,0-1.39-2,6.56,6.56,0,0,0-2-1.4,6.39,6.39,0,0,0-5.05,0,6.56,6.56,0,0,0-2,1.4,6.88,6.88,0,0,0-1.39,2,6.3,6.3,0,0,0-.51,2.54,6.21,6.21,0,0,0,.51,2.5,6.88,6.88,0,0,0,1.39,2,7.27,7.27,0,0,0,.73.64,6.9,6.9,0,0,0,1.31.76,6.42,6.42,0,0,0,2.52.52h4.82l0,.16a3.39,3.39,0,0,1-1.09,2.12,3.32,3.32,0,0,1-2,.81l-1.66,0a11.71,11.71,0,0,1-3.55-.43,8.28,8.28,0,0,1-3.5-2.12,10.31,10.31,0,0,1-2.14-3.17,9.75,9.75,0,0,1-.78-3.88,9.88,9.88,0,0,1,.78-3.9,10.13,10.13,0,0,1,2.13-3.19,10.3,10.3,0,0,1,3.17-2.14,9.66,9.66,0,0,1,3.87-.78,9.77,9.77,0,0,1,3.87.78,10.72,10.72,0,0,1,3.18,2.14,10,10,0,0,1,2.94,7.09v8A1.75,1.75,0,0,1,269.58,107.59Z"/><circle class="cls-1" cx="226.06" cy="98.94" r="2.5"/><path class="cls-1" d="M154.52,70.73a14,14,0,0,1-14.07-14V4.32a4.23,4.23,0,0,1,1.28-3.09,4.3,4.3,0,0,1,3-1.23h.15A4.29,4.29,0,0,1,148,1.24a4.23,4.23,0,0,1,1.28,3.08v12h9.29a4.14,4.14,0,0,1,3,1.29,4.24,4.24,0,0,1,1.29,3.09v.1a4,4,0,0,1-1.28,3,4.18,4.18,0,0,1-3.05,1.29h-9.29V56.71a5.05,5.05,0,0,0,1.53,3.7,5.12,5.12,0,0,0,3.74,1.53h4a4.17,4.17,0,0,1,3,1.28,4.24,4.24,0,0,1,1.29,3.09v.1a4,4,0,0,1-1.28,3,4.2,4.2,0,0,1-3.05,1.28Z"/><path class="cls-1" d="M80.82,102.86c.54,0,.8.21.8.62v1.35c0,.55-.26.83-.8.83H72a9.27,9.27,0,0,1-3.53-.6,6.58,6.58,0,0,1-2.35-1.54,5.65,5.65,0,0,1-1.29-2.15,7.56,7.56,0,0,1-.41-2.43A8.51,8.51,0,0,1,65,95.88a8,8,0,0,1,1.49-2.54,6.94,6.94,0,0,1,2.26-1.71A6.54,6.54,0,0,1,71.57,91a6.85,6.85,0,0,1,2.66.49,5.65,5.65,0,0,1,2,1.37A6,6,0,0,1,77.53,95,8,8,0,0,1,78,97.7v5.16Zm-5.63,0v-4a6.24,6.24,0,0,0-1-3.78,3.37,3.37,0,0,0-2.89-1.35,3.9,3.9,0,0,0-1.54.32,4.07,4.07,0,0,0-1.32.93,4.44,4.44,0,0,0-1,1.46,4.93,4.93,0,0,0-.35,1.89,5.2,5.2,0,0,0,.39,2.11,3.55,3.55,0,0,0,1,1.42,4,4,0,0,0,1.5.79,6.08,6.08,0,0,0,1.78.25ZM67.53,85.68A1.6,1.6,0,1,1,68,86.82,1.55,1.55,0,0,1,67.53,85.68Zm4.65,0a1.59,1.59,0,0,1,.47-1.14,1.57,1.57,0,0,1,1.14-.47,1.61,1.61,0,1,1,0,3.22,1.57,1.57,0,0,1-1.14-.47A1.59,1.59,0,0,1,72.18,85.68Z"/><path class="cls-1" d="M80.3,105.66q-.81,0-.81-.63v-1.34a.72.72,0,0,1,.81-.83h3a1.83,1.83,0,0,0,1.7-.72,3.75,3.75,0,0,0,.44-2V93.76a1.4,1.4,0,0,1,1.4-1.4h0a1.4,1.4,0,0,1,1.4,1.4v5a6.51,6.51,0,0,0,.19,1.63,3.31,3.31,0,0,0,.66,1.31,3.11,3.11,0,0,0,1.25.88,5,5,0,0,0,1.89.32H93c.54,0,.81.21.81.62v1.35a.73.73,0,0,1-.81.83h-.87a5.38,5.38,0,0,1-2.69-.63A3.29,3.29,0,0,1,87.88,103a5.7,5.7,0,0,1-.85,1.4,3.17,3.17,0,0,1-1,.81,3.89,3.89,0,0,1-1.18.38,8,8,0,0,1-1.33.11ZM83,111.29a1.59,1.59,0,0,1,.47-1.14,1.57,1.57,0,0,1,1.14-.47,1.61,1.61,0,0,1,0,3.22,1.57,1.57,0,0,1-1.14-.47A1.59,1.59,0,0,1,83,111.29Zm4.65,0a1.6,1.6,0,1,1,.47,1.14A1.59,1.59,0,0,1,87.64,111.29Z"/><path class="cls-1" d="M92.47,105.66c-.54,0-.8-.21-.8-.63v-1.34c0-.56.26-.83.8-.83h11.58a6.5,6.5,0,0,1-.84-1.81,21,21,0,0,1-.63-3.18,5.2,5.2,0,0,0-1.24-3.16,3.57,3.57,0,0,0-2.57-.91,8.22,8.22,0,0,0-1.7.22l-.56.14a1.45,1.45,0,0,1-1.77-1V92.3a2.15,2.15,0,0,1,.73-.71,4.56,4.56,0,0,1,1.3-.31c.45-.09.92-.18,1.41-.25a9.91,9.91,0,0,1,1.4-.1,5.68,5.68,0,0,1,2.7.58A5.19,5.19,0,0,1,104,93a5.88,5.88,0,0,1,1,2,10,10,0,0,1,.38,2.16,16.75,16.75,0,0,0,.34,2.21,6.7,6.7,0,0,0,.64,1.82,3.31,3.31,0,0,0,1.11,1.23,3,3,0,0,0,1.73.46h.42c.53,0,.8.21.8.62v1.35a.72.72,0,0,1-.8.83H109a6.4,6.4,0,0,1-2.57-.48,5,5,0,0,1-1.94-1.59,4.55,4.55,0,0,1-1.45,1.69,2.88,2.88,0,0,1-1.38.38Z"/><path class="cls-1" d="M109.16,105.66q-.81,0-.81-.63v-1.34a.72.72,0,0,1,.81-.83h5.28V93.73a1.4,1.4,0,0,1,1.4-1.4h0a1.4,1.4,0,0,1,1.4,1.4v3.64a14.05,14.05,0,0,1,3.85-5,8.45,8.45,0,0,1,5.35-1.77,8.54,8.54,0,0,1,3.37.63,6.83,6.83,0,0,1,2.52,1.78,7.51,7.51,0,0,1,1.56,2.75,11.54,11.54,0,0,1,.53,3.6v6.25ZM131.55,100c0-2.36-.49-4.05-1.46-5.05A5.4,5.4,0,0,0,126,93.45a6.93,6.93,0,0,0-2.9.68,9.57,9.57,0,0,0-2.71,1.93,11.18,11.18,0,0,0-2.1,3,11,11,0,0,0-1.07,3.83h14.35Z"/><path class="cls-1" d="M158.87,102.86c.54,0,.8.21.8.62v1.35c0,.55-.26.83-.8.83H150a9.27,9.27,0,0,1-3.53-.6,6.58,6.58,0,0,1-2.35-1.54,5.8,5.8,0,0,1-1.3-2.15,7.83,7.83,0,0,1-.4-2.43,8.51,8.51,0,0,1,.55-3.06,8,8,0,0,1,1.49-2.54,6.94,6.94,0,0,1,2.26-1.71,6.51,6.51,0,0,1,2.86-.63,6.85,6.85,0,0,1,2.66.49,5.65,5.65,0,0,1,2,1.37A6,6,0,0,1,155.58,95,8,8,0,0,1,156,97.7v5.16Zm-5.63,0v-4a6.31,6.31,0,0,0-1-3.78,3.38,3.38,0,0,0-2.89-1.35,3.9,3.9,0,0,0-1.54.32,4.11,4.11,0,0,0-1.33.93,4.58,4.58,0,0,0-.94,1.46,4.93,4.93,0,0,0-.35,1.89,5.2,5.2,0,0,0,.39,2.11,3.62,3.62,0,0,0,1,1.42,4.13,4.13,0,0,0,1.51.79,6.08,6.08,0,0,0,1.78.25Zm-7.66-17.18a1.6,1.6,0,1,1,.47,1.14A1.55,1.55,0,0,1,145.58,85.68Zm4.65,0a1.59,1.59,0,0,1,.47-1.14,1.61,1.61,0,1,1,0,2.28A1.59,1.59,0,0,1,150.23,85.68Z"/><path class="cls-1" d="M158.34,105.66c-.53,0-.8-.21-.8-.63v-1.34c0-.56.27-.83.8-.83h5.25v-9.1A1.36,1.36,0,0,1,165,92.4h0a1.36,1.36,0,0,1,1.36,1.36v3.68a17.3,17.3,0,0,1,2.08-3.26,10.69,10.69,0,0,1,2.28-2.09A8.18,8.18,0,0,1,173.07,91a9.44,9.44,0,0,1,2.45-.33,7.68,7.68,0,0,1,3.36.7,7.17,7.17,0,0,1,2.48,1.94,8.7,8.7,0,0,1,1.56,2.88,11.4,11.4,0,0,1,.54,3.56,2.79,2.79,0,0,0,1,2.41,5.33,5.33,0,0,0,3.1.72h.31c.54,0,.81.21.81.62v1.35a.73.73,0,0,1-.81.83h-.38a6.64,6.64,0,0,1-2.79-.54A3.44,3.44,0,0,1,183,103a5,5,0,0,1-1.83,2,4.76,4.76,0,0,1-2.47.68Zm20.37-2.8c.84,0,1.37-.22,1.6-.67a4.76,4.76,0,0,0,.35-2.14,7.34,7.34,0,0,0-1.48-4.78A5.08,5.08,0,0,0,175,93.45a7,7,0,0,0-3.25.79,9.2,9.2,0,0,0-2.71,2.1,11.06,11.06,0,0,0-1.91,3,10.3,10.3,0,0,0-.84,3.5Z"/><path class="cls-1" d="M187.38,105.66c-.54,0-.8-.21-.8-.63v-1.34c0-.56.26-.83.8-.83h3a1.84,1.84,0,0,0,1.7-.72,3.76,3.76,0,0,0,.43-2V93.76a1.4,1.4,0,0,1,1.4-1.4h0a1.4,1.4,0,0,1,1.4,1.4v5a6.5,6.5,0,0,0,.2,1.63,3.1,3.1,0,0,0,1.9,2.19,5,5,0,0,0,1.89.32h.77c.54,0,.8.21.8.62v1.35c0,.55-.26.83-.8.83h-.87a5.44,5.44,0,0,1-2.7-.63A3.28,3.28,0,0,1,195,103a6,6,0,0,1-.85,1.4,3.28,3.28,0,0,1-1,.81,4,4,0,0,1-1.18.38,8,8,0,0,1-1.33.11Zm4.93-20a1.61,1.61,0,0,1,2.75-1.14,1.62,1.62,0,0,1,0,2.28,1.62,1.62,0,0,1-2.75-1.14Z"/><path class="cls-1" d="M199.56,105.66q-.81,0-.81-.63v-1.37q0-.84.81-.84h.9q3,0,3-4.2a8.44,8.44,0,0,1,.53-3,7.14,7.14,0,0,1,1.45-2.38,6.63,6.63,0,0,1,2.2-1.56,7.43,7.43,0,0,1,5.71,0,5.79,5.79,0,0,1,2.06,1.59,6.62,6.62,0,0,1,1.22,2.43,11.42,11.42,0,0,1,.41,3.14,9.42,9.42,0,0,1-.35,2.53,6.33,6.33,0,0,1-1.14,2.22,5.64,5.64,0,0,1-2.05,1.58,7.25,7.25,0,0,1-3.07.59,11.18,11.18,0,0,1-1.49-.1,6.61,6.61,0,0,1-1.58-.42,6.19,6.19,0,0,1-1.52-.91,6.34,6.34,0,0,1-1.36-1.61,4.67,4.67,0,0,1-1.65,2.25,4.35,4.35,0,0,1-2.52.69ZM210.37,103a4.36,4.36,0,0,0,1.83-.35,3.6,3.6,0,0,0,1.3-.94,4,4,0,0,0,.75-1.38,5.82,5.82,0,0,0,.24-1.7,5.53,5.53,0,0,0-.35-2.06,5,5,0,0,0-.92-1.56,4.27,4.27,0,0,0-1.33-1,3.62,3.62,0,0,0-1.52-.35,3.89,3.89,0,0,0-1.61.35,4,4,0,0,0-1.35,1,4.62,4.62,0,0,0-.91,1.56,6,6,0,0,0-.33,2.06,5.82,5.82,0,0,0,.24,1.7,4,4,0,0,0,.75,1.38,3.6,3.6,0,0,0,1.3.94A4.56,4.56,0,0,0,210.37,103Z"/></g></g></svg>